<?xml version="1.0" encoding="utf-8"?>
<!-- Generator: Adobe Illustrator 22.1.0, SVG Export Plug-In . SVG Version: 6.00 Build 0)  -->
<svg version="1.1" id="Layer_1" xmlns="http://www.w3.org/2000/svg" xmlns:xlink="http://www.w3.org/1999/xlink" x="0px" y="0px"
	 viewBox="0 0 32 32" style="enable-background:new 0 0 32 32;" xml:space="preserve">
<style type="text/css">
	.st0{fill:#F15D22;}
	.st1{fill:#3792CF;}
	.st2{fill:#3892D0;}
</style>
<g>
	<g>
		<g>
			<path class="st0" d="M5.4,24.1c-0.2,0-0.4,0.1-0.5,0.2c-0.1,0.1-0.2,0.3-0.2,0.5c0,0.2,0.1,0.4,0.2,0.6c0.1,0.1,0.3,0.2,0.5,0.2
				c0.3,0,0.5-0.1,0.6-0.4l0.2,0.1c-0.1,0.2-0.2,0.3-0.4,0.4c-0.2,0.1-0.3,0.1-0.5,0.1c-0.2,0-0.4,0-0.5-0.1
				c-0.1-0.1-0.3-0.2-0.3-0.3c-0.1-0.1-0.1-0.3-0.1-0.5c0-0.3,0.1-0.5,0.3-0.7c0.2-0.2,0.4-0.3,0.7-0.3c0.2,0,0.4,0,0.5,0.1
				c0.1,0.1,0.3,0.2,0.3,0.3L6,24.5c0-0.1-0.1-0.2-0.2-0.2C5.7,24.2,5.5,24.1,5.4,24.1z"/>
		</g>
		<g>
			<path class="st0" d="M10,24.9c0,0.2,0,0.4-0.1,0.5c-0.1,0.1-0.2,0.3-0.3,0.3c-0.2,0.1-0.3,0.1-0.5,0.1c-0.2,0-0.4,0-0.5-0.1
				c-0.2-0.1-0.3-0.2-0.3-0.3C8,25.3,8,25.1,8,24.9c0-0.3,0.1-0.5,0.3-0.7C8.4,24,8.7,23.9,9,23.9c0.2,0,0.4,0,0.5,0.1
				c0.2,0.1,0.3,0.2,0.3,0.3C10,24.5,10,24.7,10,24.9z M9.7,24.9c0-0.2-0.1-0.4-0.2-0.5c-0.1-0.1-0.3-0.2-0.5-0.2
				c-0.2,0-0.4,0.1-0.5,0.2c-0.1,0.1-0.2,0.3-0.2,0.5c0,0.2,0.1,0.4,0.2,0.6c0.1,0.1,0.3,0.2,0.5,0.2c0.2,0,0.4-0.1,0.5-0.2
				C9.7,25.3,9.7,25.1,9.7,24.9z"/>
		</g>
		<g>
			<path class="st0" d="M13.2,25.8l-1.1-1.6l0,0.1l0,0.2v1.2h-0.2V24h0.3l1.1,1.6c0-0.2,0-0.3,0-0.4V24h0.2v1.9H13.2z"/>
		</g>
		<g>
			<path class="st0" d="M16.8,25.8l-1.1-1.6l0,0.1l0,0.2v1.2h-0.2V24h0.3l1.1,1.6c0-0.2,0-0.3,0-0.4V24h0.2v1.9H16.8z"/>
		</g>
		<g>
			<path class="st0" d="M19,25.8V24h1.5v0.2h-1.3v0.6h1.2V25h-1.2v0.6h1.3v0.2H19z"/>
		</g>
		<g>
			<path class="st0" d="M23.4,24.1c-0.2,0-0.4,0.1-0.5,0.2c-0.1,0.1-0.2,0.3-0.2,0.5c0,0.2,0.1,0.4,0.2,0.6c0.1,0.1,0.3,0.2,0.5,0.2
				c0.3,0,0.5-0.1,0.6-0.4l0.2,0.1c-0.1,0.2-0.2,0.3-0.4,0.4c-0.2,0.1-0.3,0.1-0.5,0.1c-0.2,0-0.4,0-0.5-0.1
				c-0.1-0.1-0.3-0.2-0.3-0.3c-0.1-0.1-0.1-0.3-0.1-0.5c0-0.3,0.1-0.5,0.3-0.7c0.2-0.2,0.4-0.3,0.7-0.3c0.2,0,0.4,0,0.5,0.1
				c0.1,0.1,0.3,0.2,0.3,0.3L24,24.5c0-0.1-0.1-0.2-0.2-0.2C23.6,24.2,23.5,24.1,23.4,24.1z"/>
		</g>
		<g>
			<path class="st0" d="M26.9,24.2v1.7h-0.3v-1.7h-0.7V24h1.7v0.2H26.9z"/>
		</g>
	</g>
	<g>
		<g>
			<circle class="st0" cx="8.3" cy="7.9" r="1.8"/>
		</g>
		<g>
			<circle class="st0" cx="16.4" cy="7.9" r="1.8"/>
		</g>
		<g>
			<circle class="st0" cx="23.6" cy="7.9" r="1.8"/>
		</g>
		<g>
			<path class="st1" d="M7.1,13.2l0.9,0v-2.5l-0.9,0c-1.5,0-2.8,0.6-3.9,1.6c-1,1-1.6,2.4-1.6,3.9c0,3,2.4,5.5,5.5,5.5h0.9v-2.4H7.1
				c-1.6,0-3-1.3-3-3c0-0.8,0.3-1.5,0.9-2.1C5.6,13.5,6.3,13.2,7.1,13.2z"/>
		</g>
		<g>
			<path class="st2" d="M20.1,13.3C20.1,13.3,20.1,13.3,20.1,13.3c0.1,0,0.2-0.1,0.2-0.1h2.9v-2.5l-3,0c-0.9,0-1.7,0.4-2.4,1
				c-0.3,0.3-0.5,0.6-0.7,1c-0.2,0.4-0.3,0.9-0.3,1.4c0,0.2,0,0.4,0,0.5c0.1,0.8,0.5,1.5,1.2,2c0.3,0.2,0.6,0.4,0.9,0.5
				c0.2,0.1,0.5,0.2,0.7,0.2l0,0h0c0,0,0,0,0.1,0c0,0,0.1,0,0.1,0c0,0,0,0,0,0c0.2,0,0.3,0.1,0.4,0.2c0.1,0.1,0.1,0.2,0.2,0.3
				c0,0.1,0.1,0.2,0.1,0.3c0,0.4-0.3,0.7-0.6,0.8c0,0,0,0-0.1,0c-0.1,0-0.1,0-0.2,0h-4.7l-1.8-1.8c0.6-0.1,1.2-0.4,1.6-0.9
				c0.6-0.6,1-1.5,1-2.3c0-0.9-0.3-1.7-1-2.4c-0.6-0.6-1.5-1-2.4-1H8.7v2.5h4c0.5,0,0.9,0.4,0.9,0.9c0,0.3-0.1,0.5-0.3,0.7
				c-0.2,0.1-0.4,0.2-0.6,0.2h-1.1c-1.1,0-2.1,0.9-2.1,2.1v0c0,0.1,0,0.2,0.1,0.3l4.2,4.2l0,0c0.1,0.1,0.2,0.2,0.4,0.2l5.7,0
				c0.9,0,1.7-0.4,2.4-1c0.3-0.3,0.5-0.6,0.7-1c0.2-0.4,0.3-0.9,0.3-1.4c0-0.2,0-0.4,0-0.5c-0.1-0.8-0.5-1.5-1.2-2c0,0,0,0,0,0
				c-0.4-0.3-0.8-0.5-1.2-0.6L20.4,15h-0.1c0,0,0,0-0.1,0l0,0c0,0-0.1,0-0.1,0l0,0c-0.1,0-0.1,0-0.2-0.1c-0.2-0.1-0.3-0.3-0.4-0.4
				c-0.1-0.1-0.1-0.2-0.1-0.4C19.5,13.7,19.7,13.4,20.1,13.3z"/>
		</g>
		<g>
			<path class="st2" d="M27.2,10.7l-2.7,0l-0.5,0v2.5l3.4,0c0.5,0,0.9,0.4,0.9,0.9c0,0.3-0.1,0.5-0.3,0.7c-0.2,0.1-0.4,0.2-0.6,0.2
				c-1.8,0-3.2,1.5-3.2,3.2v3.5h2.5v-3.7c0-0.3,0.2-0.5,0.5-0.5l0,0c0.9,0,1.7-0.3,2.4-1c0.6-0.6,1-1.5,1-2.4
				C30.4,12.2,29,10.7,27.2,10.7z"/>
		</g>
	</g>
	<g>
		<rect x="1.6" y="24.8" class="st0" width="2.1" height="0.2"/>
	</g>
	<g>
		<rect x="28.3" y="24.8" class="st0" width="2.1" height="0.2"/>
	</g>
	<g>
		<g>
			<path class="st0" d="M5.4,24.1c-0.2,0-0.4,0.1-0.5,0.2c-0.1,0.1-0.2,0.3-0.2,0.5c0,0.2,0.1,0.4,0.2,0.6c0.1,0.1,0.3,0.2,0.5,0.2
				c0.3,0,0.5-0.1,0.6-0.4l0.2,0.1c-0.1,0.2-0.2,0.3-0.4,0.4c-0.2,0.1-0.3,0.1-0.5,0.1c-0.2,0-0.4,0-0.5-0.1
				c-0.1-0.1-0.3-0.2-0.3-0.3c-0.1-0.1-0.1-0.3-0.1-0.5c0-0.3,0.1-0.5,0.3-0.7c0.2-0.2,0.4-0.3,0.7-0.3c0.2,0,0.4,0,0.5,0.1
				c0.1,0.1,0.3,0.2,0.3,0.3L6,24.5c0-0.1-0.1-0.2-0.2-0.2C5.7,24.2,5.5,24.1,5.4,24.1z"/>
		</g>
		<g>
			<path class="st0" d="M10,24.9c0,0.2,0,0.4-0.1,0.5c-0.1,0.1-0.2,0.3-0.3,0.3c-0.2,0.1-0.3,0.1-0.5,0.1c-0.2,0-0.4,0-0.5-0.1
				c-0.2-0.1-0.3-0.2-0.3-0.3C8,25.3,8,25.1,8,24.9c0-0.3,0.1-0.5,0.3-0.7C8.4,24,8.7,23.9,9,23.9c0.2,0,0.4,0,0.5,0.1
				c0.2,0.1,0.3,0.2,0.3,0.3C10,24.5,10,24.7,10,24.9z M9.7,24.9c0-0.2-0.1-0.4-0.2-0.5c-0.1-0.1-0.3-0.2-0.5-0.2
				c-0.2,0-0.4,0.1-0.5,0.2c-0.1,0.1-0.2,0.3-0.2,0.5c0,0.2,0.1,0.4,0.2,0.6c0.1,0.1,0.3,0.2,0.5,0.2c0.2,0,0.4-0.1,0.5-0.2
				C9.7,25.3,9.7,25.1,9.7,24.9z"/>
		</g>
		<g>
			<path class="st0" d="M13.2,25.8l-1.1-1.6l0,0.1l0,0.2v1.2h-0.2V24h0.3l1.1,1.6c0-0.2,0-0.3,0-0.4V24h0.2v1.9H13.2z"/>
		</g>
		<g>
			<path class="st0" d="M16.8,25.8l-1.1-1.6l0,0.1l0,0.2v1.2h-0.2V24h0.3l1.1,1.6c0-0.2,0-0.3,0-0.4V24h0.2v1.9H16.8z"/>
		</g>
		<g>
			<path class="st0" d="M19,25.8V24h1.5v0.2h-1.3v0.6h1.2V25h-1.2v0.6h1.3v0.2H19z"/>
		</g>
		<g>
			<path class="st0" d="M23.4,24.1c-0.2,0-0.4,0.1-0.5,0.2c-0.1,0.1-0.2,0.3-0.2,0.5c0,0.2,0.1,0.4,0.2,0.6c0.1,0.1,0.3,0.2,0.5,0.2
				c0.3,0,0.5-0.1,0.6-0.4l0.2,0.1c-0.1,0.2-0.2,0.3-0.4,0.4c-0.2,0.1-0.3,0.1-0.5,0.1c-0.2,0-0.4,0-0.5-0.1
				c-0.1-0.1-0.3-0.2-0.3-0.3c-0.1-0.1-0.1-0.3-0.1-0.5c0-0.3,0.1-0.5,0.3-0.7c0.2-0.2,0.4-0.3,0.7-0.3c0.2,0,0.4,0,0.5,0.1
				c0.1,0.1,0.3,0.2,0.3,0.3L24,24.5c0-0.1-0.1-0.2-0.2-0.2C23.6,24.2,23.5,24.1,23.4,24.1z"/>
		</g>
		<g>
			<path class="st0" d="M26.9,24.2v1.7h-0.3v-1.7h-0.7V24h1.7v0.2H26.9z"/>
		</g>
	</g>
	<g>
		<g>
			<circle class="st0" cx="8.3" cy="7.9" r="1.8"/>
		</g>
		<g>
			<circle class="st0" cx="16.4" cy="7.9" r="1.8"/>
		</g>
		<g>
			<circle class="st0" cx="23.6" cy="7.9" r="1.8"/>
		</g>
		<g>
			<path class="st1" d="M7.1,13.2l0.9,0v-2.5l-0.9,0c-1.5,0-2.8,0.6-3.9,1.6c-1,1-1.6,2.4-1.6,3.9c0,3,2.4,5.5,5.5,5.5h0.9v-2.4H7.1
				c-1.6,0-3-1.3-3-3c0-0.8,0.3-1.5,0.9-2.1C5.6,13.5,6.3,13.2,7.1,13.2z"/>
		</g>
		<g>
			<path class="st2" d="M20.1,13.3C20.1,13.3,20.1,13.3,20.1,13.3c0.1,0,0.2-0.1,0.2-0.1h2.9v-2.5l-3,0c-0.9,0-1.7,0.4-2.4,1
				c-0.3,0.3-0.5,0.6-0.7,1c-0.2,0.4-0.3,0.9-0.3,1.4c0,0.2,0,0.4,0,0.5c0.1,0.8,0.5,1.5,1.2,2c0.3,0.2,0.6,0.4,0.9,0.5
				c0.2,0.1,0.5,0.2,0.7,0.2l0,0h0c0,0,0,0,0.1,0c0,0,0.1,0,0.1,0c0,0,0,0,0,0c0.2,0,0.3,0.1,0.4,0.2c0.1,0.1,0.1,0.2,0.2,0.3
				c0,0.1,0.1,0.2,0.1,0.3c0,0.4-0.3,0.7-0.6,0.8c0,0,0,0-0.1,0c-0.1,0-0.1,0-0.2,0h-4.7l-1.8-1.8c0.6-0.1,1.2-0.4,1.6-0.9
				c0.6-0.6,1-1.5,1-2.3c0-0.9-0.3-1.7-1-2.4c-0.6-0.6-1.5-1-2.4-1H8.7v2.5h4c0.5,0,0.9,0.4,0.9,0.9c0,0.3-0.1,0.5-0.3,0.7
				c-0.2,0.1-0.4,0.2-0.6,0.2h-1.1c-1.1,0-2.1,0.9-2.1,2.1v0c0,0.1,0,0.2,0.1,0.3l4.2,4.2l0,0c0.1,0.1,0.2,0.2,0.4,0.2l5.7,0
				c0.9,0,1.7-0.4,2.4-1c0.3-0.3,0.5-0.6,0.7-1c0.2-0.4,0.3-0.9,0.3-1.4c0-0.2,0-0.4,0-0.5c-0.1-0.8-0.5-1.5-1.2-2c0,0,0,0,0,0
				c-0.4-0.3-0.8-0.5-1.2-0.6L20.4,15h-0.1c0,0,0,0-0.1,0l0,0c0,0-0.1,0-0.1,0l0,0c-0.1,0-0.1,0-0.2-0.1c-0.2-0.1-0.3-0.3-0.4-0.4
				c-0.1-0.1-0.1-0.2-0.1-0.4C19.5,13.7,19.7,13.4,20.1,13.3z"/>
		</g>
		<g>
			<path class="st2" d="M27.2,10.7l-2.7,0l-0.5,0v2.5l3.4,0c0.5,0,0.9,0.4,0.9,0.9c0,0.3-0.1,0.5-0.3,0.7c-0.2,0.1-0.4,0.2-0.6,0.2
				c-1.8,0-3.2,1.5-3.2,3.2v3.5h2.5v-3.7c0-0.3,0.2-0.5,0.5-0.5l0,0c0.9,0,1.7-0.3,2.4-1c0.6-0.6,1-1.5,1-2.4
				C30.4,12.2,29,10.7,27.2,10.7z"/>
		</g>
	</g>
	<g>
		<rect x="1.6" y="24.8" class="st0" width="2.1" height="0.2"/>
	</g>
	<g>
		<rect x="28.3" y="24.8" class="st0" width="2.1" height="0.2"/>
	</g>
</g>
</svg>
